<svg width="136" height="41" viewBox="0 0 136 41" fill="none" xmlns="http://www.w3.org/2000/svg">
<g clip-path="url(#clip0_2211_5200)">
<path fill-rule="evenodd" clip-rule="evenodd" d="M130.961 40.0247H5.03889C2.26175 40.0247 0 37.7703 0 35.0247V5.02466C0 2.26905 2.26175 0.0246582 5.03889 0.0246582H130.961C133.736 0.0246582 136 2.26905 136 5.02466V35.0247C136 37.7703 133.736 40.0247 130.961 40.0247Z" fill="black"/>
<path fill-rule="evenodd" clip-rule="evenodd" d="M130.961 0.825157C133.29 0.825157 135.197 2.71294 135.197 5.02466V35.0247C135.197 37.3364 133.303 39.2242 130.961 39.2242H5.03889C2.70959 39.2242 0.80312 37.3364 0.80312 35.0247V5.02466C0.80312 2.71294 2.69708 0.825157 5.03889 0.825157H130.961ZM130.961 0.0246582H5.03889C2.26175 0.0246582 0 2.27902 0 5.02466V35.0247C0 37.7803 2.26175 40.0247 5.03889 40.0247H130.961C133.736 40.0247 136 37.7803 136 35.0247V5.02466C136 2.27902 133.736 0.0246582 130.961 0.0246582Z" fill="#A6A6A6"/>
<path d="M71.6453 13.2566C70.7371 13.2566 69.9715 12.9399 69.3661 12.3165C68.7656 11.7105 68.4303 10.8751 68.4454 10.0222C68.4454 9.11198 68.7556 8.34141 69.3661 7.73043C69.969 7.10699 70.7346 6.79028 71.6428 6.79028C72.541 6.79028 73.3066 7.10699 73.9221 7.73043C74.5326 8.36136 74.8428 9.13193 74.8428 10.0222C74.8328 10.9349 74.5225 11.7055 73.9221 12.314C73.3191 12.9424 72.5535 13.2566 71.6453 13.2566ZM44.622 13.2566C43.7338 13.2566 42.9632 12.9449 42.3327 12.3289C41.7072 11.7155 41.3895 10.9399 41.3895 10.0247C41.3895 9.10949 41.7072 8.33392 42.3327 7.72046C42.9507 7.1045 43.7213 6.79278 44.622 6.79278C45.0623 6.79278 45.4901 6.88006 45.9004 7.05712C46.3033 7.22919 46.631 7.4636 46.8737 7.75038L46.9337 7.8227L46.2557 8.48604L46.1857 8.40375C45.8029 7.94988 45.29 7.72794 44.612 7.72794C44.0065 7.72794 43.4786 7.9424 43.0432 8.36634C42.6054 8.79278 42.3827 9.35138 42.3827 10.0272C42.3827 10.703 42.6054 11.2616 43.0432 11.688C43.4786 12.112 44.0065 12.3264 44.612 12.3264C45.2575 12.3264 45.8004 12.112 46.2232 11.688C46.4734 11.4387 46.6285 11.0895 46.6836 10.6481H44.5094V9.71547H47.6168L47.6293 9.80026C47.6518 9.95737 47.6743 10.1195 47.6743 10.2691C47.6743 11.1294 47.4141 11.8252 46.8987 12.3389C46.3133 12.9474 45.5477 13.2566 44.622 13.2566ZM80.5522 13.1244H79.594L76.6592 8.44365L76.6842 9.28654V13.122H75.726V6.92495H76.8193L76.8493 6.97233L79.609 11.3813L79.584 10.5409V6.92495H80.5522V13.1244ZM64.4448 13.1244H63.474V7.85762H61.7902V6.92495H66.1261V7.85762H64.4423V13.1244H64.4448ZM60.9996 13.1244H60.0314V6.92495H60.9996V13.1244ZM55.5579 13.1244H54.5897V7.85762H52.9059V6.92495H57.2417V7.85762H55.5579V13.1244ZM52.2929 13.1145H48.58V6.92495H52.2929V7.85762H49.5508V9.55836H52.0252V10.4811H49.5508V12.1818H52.2929V13.1145ZM70.0766 11.6756C70.5094 12.107 71.0349 12.3239 71.6453 12.3239C72.2733 12.3239 72.7862 12.112 73.214 11.6756C73.6394 11.2516 73.8545 10.6955 73.8545 10.0247C73.8545 9.35387 73.6394 8.79527 73.2165 8.37382C72.7837 7.9424 72.2558 7.72545 71.6478 7.72545C71.0198 7.72545 70.5069 7.93742 70.0816 8.37382C69.6563 8.79776 69.4411 9.35387 69.4411 10.0247C69.4411 10.6955 69.6538 11.2541 70.0766 11.6756Z" fill="white"/>
<path fill-rule="evenodd" clip-rule="evenodd" d="M68.3553 21.7803C65.991 21.7803 64.0745 23.5684 64.0745 26.0347C64.0745 28.4786 66.0035 30.289 68.3553 30.289C70.7196 30.289 72.6361 28.4886 72.6361 26.0347C72.6361 23.5684 70.7196 21.7803 68.3553 21.7803ZM68.3553 28.6033C67.0618 28.6033 65.9484 27.5359 65.9484 26.0247C65.9484 24.491 67.0643 23.4462 68.3553 23.4462C69.6488 23.4462 70.7621 24.491 70.7621 26.0247C70.7646 27.5459 69.6488 28.6033 68.3553 28.6033ZM59.0156 21.7803C56.6512 21.7803 54.7348 23.5684 54.7348 26.0347C54.7348 28.4786 56.6638 30.289 59.0156 30.289C61.3799 30.289 63.2964 28.4886 63.2964 26.0347C63.2964 23.5684 61.3774 21.7803 59.0156 21.7803ZM59.0156 28.6033C57.7221 28.6033 56.6087 27.5359 56.6087 26.0247C56.6087 24.491 57.7246 23.4462 59.0156 23.4462C60.3091 23.4462 61.4224 24.491 61.4224 26.0247C61.4224 27.5459 60.3091 28.6033 59.0156 28.6033ZM47.902 23.0796V24.8801H52.2378C52.1052 25.89 51.77 26.6357 51.2571 27.1469C50.6216 27.7803 49.6408 28.4686 47.912 28.4686C45.2474 28.4686 43.1633 26.324 43.1633 23.6681C43.1633 21.0122 45.2474 18.8676 47.912 18.8676C49.3506 18.8676 50.3989 19.4337 51.177 20.1569L52.458 18.8801C51.3772 17.8477 49.9386 17.0571 47.922 17.0571C44.2667 17.0571 41.1993 20.0247 41.1993 23.6581C41.1993 27.3015 44.2642 30.2591 47.922 30.2591C49.896 30.2591 51.3772 29.6157 52.5481 28.4038C53.7415 27.2142 54.1193 25.5359 54.1193 24.1818C54.1193 23.7604 54.0868 23.3813 54.0192 23.0596H47.8995C47.902 23.0571 47.902 23.0796 47.902 23.0796ZM93.3596 24.4811C93.0018 23.526 91.921 21.7703 89.7043 21.7703C87.5076 21.7703 85.6812 23.4935 85.6812 26.0247C85.6812 28.4137 87.4875 30.2791 89.9169 30.2791C91.8684 30.2791 93.0043 29.0895 93.4722 28.3913L92.0236 27.4237C91.5432 28.1344 90.8752 28.6008 89.9269 28.6008C88.9687 28.6008 88.2982 28.1669 87.8528 27.3115L93.5597 24.9549C93.5597 24.9574 93.3596 24.4811 93.3596 24.4811ZM87.5401 25.9025C87.4951 24.2591 88.8211 23.4237 89.7693 23.4237C90.5174 23.4237 91.1404 23.7903 91.353 24.324L87.5401 25.9025ZM82.904 30.0247H84.778V17.526H82.904V30.0247ZM79.8266 22.7255H79.7591C79.3363 22.2242 78.5331 21.7703 77.5073 21.7703C75.3782 21.7703 73.4167 23.6382 73.4167 26.0372C73.4167 28.4262 75.3682 30.2716 77.5073 30.2716C78.5206 30.2716 79.3363 29.8152 79.7591 29.304H79.8266V29.915C79.8266 31.5384 78.956 32.4137 77.5524 32.4137C76.404 32.4137 75.6909 31.5908 75.4007 30.9025L73.772 31.5808C74.2398 32.703 75.4883 34.092 77.5499 34.092C79.7466 34.092 81.608 32.8028 81.608 29.6581V22.0247H79.8366V22.7255C79.8391 22.7255 79.8266 22.7255 79.8266 22.7255ZM77.675 28.6033C76.3815 28.6033 75.3006 27.526 75.3006 26.0372C75.3006 24.5359 76.3815 23.4486 77.675 23.4486C78.956 23.4486 79.9492 24.5484 79.9492 26.0372C79.9617 27.526 78.9585 28.6033 77.675 28.6033ZM102.134 17.526H97.6529V30.0247H99.5268V25.2915H102.136C104.21 25.2915 106.25 23.7928 106.25 21.4137C106.25 19.0347 104.218 17.526 102.134 17.526ZM102.189 23.5459H99.5243V19.2566H102.189C103.592 19.2566 104.386 20.4112 104.386 21.4013C104.386 22.3813 103.582 23.5459 102.189 23.5459ZM113.76 21.7579C112.399 21.7579 110.996 22.3589 110.415 23.6681L112.077 24.3564C112.434 23.6681 113.09 23.4337 113.783 23.4337C114.754 23.4337 115.734 24.0122 115.757 25.0447V25.1768C115.422 24.9873 114.686 24.698 113.805 24.698C112.011 24.698 110.193 25.6756 110.193 27.5085C110.193 29.1868 111.664 30.2641 113.302 30.2641C114.561 30.2641 115.254 29.698 115.687 29.0422H115.754V30.0097H117.561V25.2217C117.561 22.9923 115.899 21.7579 113.76 21.7579ZM113.525 28.6033C112.912 28.6033 112.054 28.304 112.054 27.5359C112.054 26.5683 113.125 26.2018 114.038 26.2018C114.864 26.2018 115.254 26.3788 115.744 26.6232C115.609 27.7454 114.659 28.5933 113.525 28.6033ZM124.151 22.0247L121.999 27.4462H121.932L119.702 22.0247H117.686L121.031 29.6033L119.124 33.8152H121.076L126.222 22.0247H124.151ZM107.283 30.0247H109.157V17.526H107.283V30.0247Z" fill="white"/>
<path fill-rule="evenodd" clip-rule="evenodd" d="M10.4681 7.5583C10.1779 7.87002 10.0102 8.34633 10.0102 8.96977V31.082C10.0102 31.7054 10.1779 32.1817 10.4781 32.481L10.5556 32.5483L22.9852 20.1593V19.8825L10.5456 7.49097L10.4681 7.5583Z" fill="url(#paint0_linear_2211_5200)"/>
<path fill-rule="evenodd" clip-rule="evenodd" d="M27.121 24.3014L22.9753 20.1692V19.88L27.121 15.7478L27.211 15.8027L32.1148 18.5807C33.5184 19.3687 33.5184 20.6705 32.1148 21.4685L27.211 24.2466L27.121 24.3014Z" fill="url(#paint1_linear_2211_5200)"/>
<path fill-rule="evenodd" clip-rule="evenodd" d="M27.211 24.2466L22.9752 20.0247L10.4681 32.491C10.9259 32.9798 11.694 33.0346 12.5522 32.5583L27.211 24.2466Z" fill="url(#paint2_linear_2211_5200)"/>
<path fill-rule="evenodd" clip-rule="evenodd" d="M27.211 15.8027L12.5522 7.50347C11.694 7.0147 10.9234 7.08203 10.4681 7.57081L22.9752 20.0247L27.211 15.8027Z" fill="url(#paint3_linear_2211_5200)"/>
<path opacity="0.2" fill-rule="evenodd" clip-rule="evenodd" d="M27.1209 24.1569L12.5622 32.4013C11.7491 32.8676 11.0235 32.8352 10.5556 32.4112L10.4781 32.4885L10.5556 32.5559C11.0235 32.9773 11.7491 33.0122 12.5622 32.5459L27.221 24.2466L27.1209 24.1569Z" fill="black"/>
<path opacity="0.12" fill-rule="evenodd" clip-rule="evenodd" d="M32.1148 21.3239L27.1084 24.1568L27.1985 24.2466L32.1023 21.4685C32.8053 21.0695 33.1506 20.5459 33.1506 20.0247C33.1081 20.5035 32.7503 20.9573 32.1148 21.3239Z" fill="black"/>
<path opacity="0.25" fill-rule="evenodd" clip-rule="evenodd" d="M12.5522 7.64807L32.1148 18.7254C32.7503 19.082 33.1081 19.5483 33.1631 20.0246C33.1631 19.5034 32.8178 18.9797 32.1148 18.5807L12.5522 7.50344C11.1486 6.70294 10.0102 7.37127 10.0102 8.96977V9.11441C10.0102 7.51341 11.1486 6.85755 12.5522 7.64807Z" fill="white"/>
</g>
<defs>
<linearGradient id="paint0_linear_2211_5200" x1="21.8703" y1="8.7312" x2="1.96891" y2="14.0513" gradientUnits="userSpaceOnUse">
<stop stop-color="#00A0FF"/>
<stop offset="0.00657" stop-color="#00A1FF"/>
<stop offset="0.2601" stop-color="#00BEFF"/>
<stop offset="0.5122" stop-color="#00D2FF"/>
<stop offset="0.7604" stop-color="#00DFFF"/>
<stop offset="1" stop-color="#00E3FF"/>
</linearGradient>
<linearGradient id="paint1_linear_2211_5200" x1="33.9452" y1="20.0246" x2="9.6691" y2="20.0246" gradientUnits="userSpaceOnUse">
<stop stop-color="#FFE000"/>
<stop offset="0.4087" stop-color="#FFBD00"/>
<stop offset="0.7754" stop-color="#FFA500"/>
<stop offset="1" stop-color="#FF9C00"/>
</linearGradient>
<linearGradient id="paint2_linear_2211_5200" x1="24.9078" y1="22.322" x2="9.00118" y2="49.1818" gradientUnits="userSpaceOnUse">
<stop stop-color="#FF3A44"/>
<stop offset="1" stop-color="#C31162"/>
</linearGradient>
<linearGradient id="paint3_linear_2211_5200" x1="7.31864" y1="0.203463" x2="14.4152" y2="12.1994" gradientUnits="userSpaceOnUse">
<stop stop-color="#32A071"/>
<stop offset="0.0685" stop-color="#2DA771"/>
<stop offset="0.4762" stop-color="#15CF74"/>
<stop offset="0.8009" stop-color="#06E775"/>
<stop offset="1" stop-color="#00F076"/>
</linearGradient>
<clipPath id="clip0_2211_5200">
<rect width="136" height="40" fill="white" transform="translate(0 0.0246582)"/>
</clipPath>
</defs>
</svg>
