<svg width="37" height="37" viewBox="0 0 18 21" fill="none" xmlns="http://www.w3.org/2000/svg">
<path fill-rule="evenodd" clip-rule="evenodd" d="M13.3203 7.28165C14.66 8.23488 16.2643 8.74417 17.9081 8.738V5.47753C17.5849 5.47842 17.2627 5.4438 16.9471 5.37428V7.97179C15.2997 7.97471 13.693 7.45958 12.3539 6.49914V13.2048C12.3498 14.3052 12.0483 15.3839 11.4814 16.3267C10.9144 17.2694 10.1032 18.041 9.13357 18.5597C8.16398 19.0783 7.07223 19.3247 5.97408 19.2726C4.87594 19.2206 3.81233 18.8721 2.89606 18.264C3.74359 19.1223 4.82653 19.7096 6.00775 19.9514C7.18896 20.1933 8.41532 20.0789 9.53153 19.6227C10.6477 19.1665 11.6036 18.389 12.2781 17.3888C12.9525 16.3885 13.3152 15.2104 13.3203 14.0037V7.28165ZM14.5093 3.95597C13.828 3.21688 13.41 2.27309 13.3203 1.27152V0.847656H12.4082C12.5209 1.4843 12.7663 2.09008 13.1283 2.6256C13.4903 3.16112 13.9608 3.6144 14.5093 3.95597ZM5.00805 15.6828C4.69191 15.269 4.49818 14.7747 4.44889 14.2562C4.3996 13.7376 4.49674 13.2156 4.72926 12.7496C4.96178 12.2836 5.32033 11.8923 5.76411 11.6202C6.20789 11.3481 6.71908 11.2062 7.23949 11.2105C7.52681 11.2104 7.81245 11.2544 8.08646 11.3409V7.97179C7.76615 7.92933 7.44309 7.91116 7.12005 7.91745V10.5367C6.45285 10.3256 5.73072 10.3736 5.09727 10.6711C4.46382 10.9687 3.96548 11.494 3.70137 12.1425C3.43725 12.7911 3.42671 13.5154 3.67184 14.1714C3.91698 14.8273 4.39982 15.3669 5.02434 15.6828H5.00805Z" fill="#EE1D52"/>
<path fill-rule="evenodd" clip-rule="evenodd" d="M12.3534 6.4774C13.6925 7.43784 15.2992 7.95297 16.9466 7.95005V5.35254C16.008 5.15391 15.1553 4.66543 14.5088 3.95597C13.9603 3.6144 13.4898 3.16112 13.1278 2.6256C12.7658 2.09008 12.5204 1.4843 12.4077 0.847656H10.0079V14.0037C10.0057 14.586 9.82133 15.153 9.48069 15.6251C9.14005 16.0972 8.66026 16.4506 8.10866 16.6359C7.55706 16.8211 6.96135 16.8288 6.40517 16.6579C5.84898 16.4869 5.36024 16.1459 5.00756 15.6828C4.44863 15.4005 4.00102 14.938 3.73693 14.3699C3.47285 13.8018 3.4077 13.1612 3.552 12.5514C3.6963 11.9417 4.04163 11.3984 4.53227 11.0092C5.02291 10.62 5.63025 10.4076 6.2563 10.4063C6.54354 10.4072 6.82903 10.4511 7.10327 10.5367V7.91744C5.91837 7.94591 4.76757 8.32004 3.79212 8.99389C2.81666 9.66775 2.05902 10.612 1.61218 11.7108C1.16534 12.8095 1.04876 14.015 1.27674 15.1791C1.50473 16.3432 2.06736 17.4154 2.89557 18.264C3.81203 18.8764 4.87731 19.2285 5.97792 19.2829C7.07853 19.3372 8.17326 19.0917 9.14549 18.5726C10.1177 18.0534 10.931 17.28 11.4988 16.3347C12.0666 15.3895 12.3676 14.3078 12.3697 13.2048L12.3534 6.4774Z" fill="white"/>
<path fill-rule="evenodd" clip-rule="evenodd" d="M16.9469 5.3521V4.6511C16.0849 4.65477 15.2396 4.41357 14.5091 3.95553C15.154 4.66704 16.0073 5.15592 16.9469 5.3521ZM12.408 0.847218C12.408 0.722234 12.37 0.591815 12.3537 0.46683V0.0429688H9.04183V13.2044C9.03895 13.9414 8.74407 14.6471 8.22189 15.1667C7.69972 15.6862 6.99291 15.9773 6.2566 15.9758C5.82305 15.978 5.39514 15.8774 5.00786 15.6824C5.36055 16.1455 5.84929 16.4865 6.40547 16.6574C6.96166 16.8284 7.55736 16.8207 8.10896 16.6354C8.66056 16.4502 9.14035 16.0967 9.48099 15.6247C9.82163 15.1526 10.006 14.5855 10.0082 14.0032V0.847218H12.408ZM7.10357 7.91157V7.1671C5.74076 6.9818 4.35542 7.26395 3.17333 7.96758C1.99124 8.6712 1.08211 9.7548 0.594094 11.0418C0.106081 12.3288 0.0679628 13.7432 0.485953 15.0547C0.903943 16.3661 1.7534 17.4972 2.89587 18.2636C2.07393 17.413 1.51729 16.3412 1.29396 15.1792C1.07063 14.0172 1.19028 12.8152 1.63828 11.7202C2.08629 10.6251 2.84325 9.68434 3.81671 9.01281C4.79016 8.34128 5.93795 7.96806 7.11986 7.93874L7.10357 7.91157Z" fill="#69C9D0"/>
</svg>
