<svg width="14" height="14" viewBox="0 0 14 14" fill="none" xmlns="http://www.w3.org/2000/svg">
<path d="M3.69442 4.66667C4.83789 4.66667 5.79368 3.92058 6.06883 2.91667H13.3716C13.6914 2.91667 13.9509 2.65592 13.9509 2.33333C13.9509 2.01075 13.6914 1.75 13.3716 1.75H6.06883C5.79368 0.746083 4.83789 0 3.69442 0C2.44263 0 0.0490997 0.908833 0.0490997 2.33333C0.0490997 3.75783 2.44263 4.66667 3.69442 4.66667ZM3.69442 1.16667C4.41329 1.16667 4.99777 1.68992 4.99777 2.33333C4.99777 2.97675 4.41329 3.5 3.69442 3.5C2.69403 3.5 1.20763 2.73467 1.20763 2.33333C1.20763 1.932 2.69403 1.16667 3.69442 1.16667ZM13.5616 7.2905C13.148 6.73517 12.5155 6.41667 11.8256 6.41667H2.17443C1.4851 6.41667 0.851962 6.73517 0.438366 7.2905C0.0212949 7.85108 -0.105564 8.55867 0.0896483 9.23242C0.46733 10.535 1.15202 11.7104 2.07016 12.6309C2.9379 13.5007 4.16305 14 5.4328 14H8.5672C9.83638 14 11.0621 13.5012 11.9298 12.6309C12.848 11.7104 13.5327 10.535 13.9104 9.23242C14.1056 8.55867 13.9787 7.85108 13.5616 7.2905ZM12.7982 8.90575C12.4796 10.0042 11.8812 11.0332 11.1119 11.8043C10.4597 12.4588 9.53226 12.8339 8.56662 12.8339H5.43222C4.46658 12.8339 3.53918 12.4588 2.88692 11.8043C2.11824 11.0337 1.51928 10.0042 1.20068 8.90575C1.10858 8.58783 1.16766 8.25417 1.36403 7.99108C1.55693 7.73267 1.85177 7.58392 2.17269 7.58392H11.8244C12.1459 7.58392 12.4408 7.73267 12.6331 7.99108C12.8294 8.25417 12.8885 8.58783 12.7964 8.90575H12.7982Z" fill="#C4C4C4"/>
</svg>
