<svg width="14" height="14" viewBox="0 0 14 14" fill="none" xmlns="http://www.w3.org/2000/svg">
<path d="M5.24936 3.79178C5.24936 3.30884 5.64137 2.91689 6.12439 2.91689C6.6074 2.91689 6.99941 3.30884 6.99941 3.79178C6.99941 4.27472 6.6074 4.66667 6.12439 4.66667C5.64137 4.66667 5.24936 4.27472 5.24936 3.79178ZM13.9757 7.86702C13.5225 10.5506 11.7211 12.9344 9.46524 14H4.53476C2.27952 12.9344 0.478713 10.55 0.0242827 7.86643C-0.0608866 7.36366 0.0802844 6.85039 0.411628 6.45844C0.616968 6.21464 0.881226 6.03558 1.17465 5.93293C1.17057 5.87402 1.16648 5.81511 1.16648 5.75561C1.16648 4.88014 1.61392 4.09157 2.33785 3.63896C2.33435 3.59172 2.3326 3.54564 2.3326 3.50015C2.3326 2.1289 3.53022 1.01196 4.92093 1.18227C5.35378 0.459026 6.13547 0 7 0C7.86453 0 8.64622 0.458443 9.07906 1.18227C10.4295 1.02129 11.6137 2.08107 11.6651 3.40974C12.3861 3.86527 12.8335 4.65617 12.8335 5.52348C12.8335 5.65763 12.8189 5.79119 12.7973 5.92301C13.1019 6.02391 13.376 6.20647 13.589 6.45786C13.9197 6.85039 14.0609 7.36366 13.9757 7.86643V7.86702ZM2.33319 5.7562C2.33319 5.78244 2.33902 5.80811 2.34019 5.83435H7.63352C7.59968 5.74162 7.57868 5.64246 7.57868 5.53806C7.57868 5.05512 7.9707 4.66317 8.45371 4.66317C8.93672 4.66317 9.32874 5.05512 9.32874 5.53806C9.32874 5.64246 9.30715 5.74162 9.2739 5.83435H11.6301C11.654 5.73403 11.6668 5.6308 11.6668 5.52464C11.6668 4.98513 11.3396 4.49985 10.8332 4.28871L10.4155 4.11432C10.4155 4.11432 10.5001 3.55089 10.5001 3.50073C10.5001 2.85739 9.97684 2.33421 9.3334 2.33421C9.07323 2.33421 8.38371 2.60834 8.38371 2.60834L8.19645 2.04083C8.0232 1.51823 7.5431 1.1671 7 1.1671C6.4569 1.1671 5.97622 1.51881 5.80296 2.04141L5.61571 2.60834C5.61571 2.60834 5.01719 2.33421 4.66601 2.33421C4.02257 2.33421 3.49931 2.85739 3.49931 3.50073C3.49931 3.58997 3.68831 4.31788 3.68831 4.31788L3.19655 4.50802C2.67211 4.71099 2.33319 5.20093 2.33319 5.7562ZM12.6976 7.21143C12.5844 7.07787 12.4193 7.00087 12.2449 7.00087H1.75567C1.58125 7.00087 1.41616 7.07787 1.30299 7.21143C1.2394 7.28726 1.13732 7.44824 1.17523 7.67221C1.55266 9.90376 2.96962 11.9143 4.80076 12.8335H9.19982C11.0315 11.9148 12.4479 9.90435 12.8253 7.67221C12.8633 7.44765 12.7618 7.28726 12.6976 7.21143Z" fill="#C4C4C4"/>
</svg>
