<svg width="18" height="24" viewBox="0 0 18 24" fill="none" xmlns="http://www.w3.org/2000/svg">
<path d="M18 21V24H16V21C16 19.346 14.654 18 13 18H8V24H6V18H5C3.346 18 2 19.346 2 21V24H0V21C0 18.243 2.243 16 5 16H13C15.757 16 18 18.243 18 21ZM11.5 20C10.672 20 10 20.672 10 21.5C10 22.328 10.672 23 11.5 23C12.328 23 13 22.328 13 21.5C13 20.672 12.328 20 11.5 20ZM1 3C1 1.346 2.346 0 4 0C4.64 0 5.407 0.206 6.095 0.553C6.714 0.333 7.842 0 9 0C10.158 0 11.286 0.333 11.904 0.553C12.592 0.206 13.359 0 14 0C15.654 0 17 1.346 17 3C17 4.305 16.163 5.417 14.999 5.829C14.999 6.376 14.999 6.998 14.999 6.999V9C14.999 12.314 12.313 15 8.999 15C5.685 15 2.999 12.314 2.999 9V6.999C2.999 6.999 2.999 6.376 3 5.829C1.835 5.417 1 4.305 1 3ZM13 8H5V9C5 10.125 5.478 11.203 6.31 11.961C7.153 12.729 8.249 13.089 9.396 12.982C11.417 12.789 13 10.946 13 8.786V8.001V8ZM3 3C3 3.552 3.449 4 4 4H4.415L4.708 4.293C4.956 4.541 4.996 4.582 5 6H13C13.004 4.582 13.045 4.541 13.292 4.293L13.585 4H14C14.552 4 15 3.552 15 3C15 2.448 14.552 2 14 2C13.655 2 13.037 2.172 12.521 2.5L12.072 2.786L11.582 2.571C11.568 2.565 10.261 2 9 2C7.739 2 6.431 2.565 6.418 2.571L5.93 2.785L5.479 2.5C4.963 2.172 4.344 2 4 2C3.449 2 3 2.448 3 3Z" fill="#5E5DC0" fill-opacity="0.8"/>
</svg>
