<svg width="14" height="14" viewBox="0 0 14 14" fill="none" xmlns="http://www.w3.org/2000/svg">
<path d="M7 0C5.61553 0 4.26215 0.410543 3.11101 1.17971C1.95987 1.94888 1.06266 3.04213 0.532846 4.32122C0.003033 5.6003 -0.13559 7.00776 0.134506 8.36563C0.404603 9.7235 1.07129 10.9708 2.05026 11.9497C3.02922 12.9287 4.2765 13.5954 5.63437 13.8655C6.99224 14.1356 8.3997 13.997 9.67879 13.4672C10.9579 12.9373 12.0511 12.0401 12.8203 10.889C13.5895 9.73785 14 8.38447 14 7C13.998 5.1441 13.2599 3.36479 11.9475 2.05247C10.6352 0.740149 8.8559 0.0020073 7 0ZM7 12.8333C5.84628 12.8333 4.71846 12.4912 3.75918 11.8502C2.79989 11.2093 2.05222 10.2982 1.61071 9.23232C1.16919 8.16642 1.05368 6.99353 1.27876 5.86197C1.50384 4.73042 2.05941 3.69102 2.87521 2.87521C3.69102 2.0594 4.73042 1.50383 5.86198 1.27875C6.99353 1.05367 8.16642 1.16919 9.23232 1.6107C10.2982 2.05221 11.2093 2.79989 11.8502 3.75917C12.4912 4.71846 12.8333 5.84627 12.8333 7C12.8316 8.54657 12.2165 10.0293 11.1229 11.1229C10.0293 12.2165 8.54658 12.8316 7 12.8333Z" fill="#C4C4C4"/>
<path d="M7 2.91667C6.8195 2.91667 6.6464 2.98837 6.51877 3.116C6.39115 3.24363 6.31944 3.41673 6.31944 3.59722V6.54062L4.02529 7.97796C3.87187 8.0738 3.76281 8.22666 3.72209 8.40292C3.68138 8.57917 3.71235 8.76438 3.80819 8.9178C3.90404 9.07123 4.0569 9.18029 4.23316 9.221C4.40941 9.26171 4.59462 9.23074 4.74804 9.1349L7.36137 7.50157C7.46011 7.4397 7.54131 7.35352 7.5972 7.25128C7.65309 7.14904 7.68179 7.03416 7.68055 6.91765V3.59722C7.68055 3.41673 7.60885 3.24363 7.48122 3.116C7.3536 2.98837 7.18049 2.91667 7 2.91667Z" fill="#C4C4C4"/>
</svg>
