<svg width="24" height="24" viewBox="0 0 24 24" fill="none" xmlns="http://www.w3.org/2000/svg">
<path d="M23 13H20V12.5C20 11.673 19.327 11 18.5 11H16.5C15.673 11 15 11.673 15 12.5V13H12C11.447 13 11 13.447 11 14C11 14.553 11.447 15 12 15V20C12 22.206 13.794 24 16 24H19C21.206 24 23 22.206 23 20V15C23.553 15 24 14.553 24 14C24 13.447 23.553 13 23 13ZM21 20C21 21.103 20.103 22 19 22H16C14.897 22 14 21.103 14 20V15H21V20ZM9.9 18.323C9.39 19.317 8.322 20 7.088 20H2.912C1.678 20 0.61 19.316 0.1 18.323C-0.212 17.715 0.248 17 0.956 17H9.045C9.753 17 10.213 17.715 9.901 18.323H9.9ZM9.9 22.323C9.39 23.317 8.322 24 7.088 24H2.912C1.678 24 0.61 23.316 0.1 22.323C-0.212 21.715 0.248 21 0.956 21H9.045C9.753 21 10.213 21.715 9.901 22.323H9.9ZM6.5 13C9.743 13 12.431 10.61 12.915 7.5H20C20.553 7.5 21 7.052 21 6.5C21 5.948 20.553 5.5 20 5.5H12.915C12.431 2.39 9.743 0 6.5 0C2.916 0 0 2.916 0 6.5C0 10.084 2.916 13 6.5 13ZM6.5 2C8.981 2 11 4.019 11 6.5C11 8.981 8.981 11 6.5 11C4.019 11 2 8.981 2 6.5C2 4.019 4.019 2 6.5 2Z" fill="#5E5DC0" fill-opacity="0.8"/>
</svg>
